<?xml version="1.0" encoding="UTF-8"?>
<svg id="file" xmlns="http://www.w3.org/2000/svg" viewBox="0 0 1920 1080">
  <defs>
    <style>
      .cls-1 {
        fill: #333;
      }

      .cls-2 {
        fill: #3fa9f5;
      }

      .cls-3 {
        font-family: MyriadPro-Regular, 'Myriad Pro';
        font-size: 33px;
      }
    </style>
  </defs>
  <g>
    <path class="cls-1" d="M950.17,39.02s73.83,15.26,234.06,57.64c151.36,40.03,204.41,56.04,204.41,56.04,0,0,7.8,160.11-60.86,449.9-55.43,233.94-262.15,363.44-377.62,436.78-115.47-73.33-322.19-202.83-377.62-436.78-68.66-289.79-60.86-449.9-60.86-449.9,0,0,53.05-16.01,204.41-56.04,160.23-42.37,234.06-57.64,234.06-57.64Z"/>
    <path d="M950.18,1051.06l-8.33-5.29c-112.89-71.68-323.03-205.09-378.9-440.91-68.2-287.82-61.19-451.04-61.11-452.66l.33-6.95,6.67-2.01c.54-.16,54.96-16.52,204.75-56.13,158.66-41.95,233.85-57.61,234.58-57.76l2-.41,2.01,.41c.73,.15,75.92,15.81,234.57,57.76,149.79,39.61,204.21,55.97,204.75,56.13l6.67,2.01,.33,6.95c.08,1.61,7.08,164.83-61.11,452.66-55.86,235.79-265.96,369.21-378.85,440.88l-8.37,5.32ZM521.39,160.13c-.49,33.72,1.16,188.56,60.77,440.19,53.68,226.55,249.5,352.1,368.02,427.36,118.51-75.26,314.34-200.8,368.01-427.36,59.69-251.95,61.27-406.52,60.78-440.19-18.65-5.44-77.22-22.19-197.25-53.93-143.83-38.03-218.68-54.35-231.54-57.09-12.85,2.74-87.71,19.06-231.55,57.09-120.02,31.74-178.59,48.49-197.24,53.93Z"/>
  </g>
  <g>
    <path class="cls-2" d="M685.08,474.8c0-85.09-.05-170.18,.02-255.27,.04-50.68,24.23-76.18,74.66-76.64,82.53-.75,165.07-.67,247.6-.19,6.47,.04,14.29,4.55,19.14,9.35,60.49,59.84,120.74,119.93,180.41,180.58,5.37,5.46,8.86,15.28,8.89,23.09,.4,124.8,.1,249.6-.07,374.4-.07,51.17-25.15,76.74-76.45,76.85-114.04,.25-228.07,.15-342.11,.02-19.46-.02-39.21,1.05-58.32-1.8-30.19-4.51-54.09-33.23-54.24-63.77-.44-88.87-.16-177.75-.16-266.63,.21,0,.42,0,.63,0Zm300.64-102.3h167.8c-56.02-56.81-111.38-112.94-167.8-170.16v170.16Z"/>
    <text class="cls-3" transform="translate(719.01 557.14)"><tspan x="0" y="0">1010100110010111110001110100 </tspan></text>
    <text class="cls-3" transform="translate(719.01 609.29)"><tspan x="0" y="0">1010100110010111110001110100 </tspan></text>
    <text class="cls-3" transform="translate(719.01 657.2)"><tspan x="0" y="0">1010100110010111110001110100 </tspan></text>
  </g>
</svg>